<svg xmlns="http://www.w3.org/2000/svg" xmlns:xlink="http://www.w3.org/1999/xlink" version="1.1" width="256" height="256" viewBox="0 0 256 256" xml:space="preserve">
<desc>Created with Fabric.js 1.7.22</desc>
<defs>
</defs>
<g transform="translate(128 128) scale(0.72 0.72)" style="">
	<g style="stroke: none; stroke-width: 0; stroke-dasharray: none; stroke-linecap: butt; stroke-linejoin: miter; stroke-miterlimit: 10; fill: none; fill-rule: nonzero; opacity: 1;" transform="translate(-175.05 -175.05000000000004) scale(3.89 3.89)" >
	<path d="M 48.583 71.346 C 53.476 58.49 66.358 52.164 76.846 50.5 c -15.364 7.937 -23.033 16.378 -28.463 33.555 l 3.13 0.775 c 0.874 -3.34 2.088 -6.358 3.555 -9.139 c 10.716 3.562 20.485 2.482 28.441 -6.008 c 9.884 -12.272 6.598 -25.591 2.447 -38.979 c -3.952 12.89 -25.983 10.943 -34.248 26.041 c -1.745 3.187 -3.208 6.323 -4.38 9.508" style="stroke: none; stroke-width: 1; stroke-dasharray: none; stroke-linecap: butt; stroke-linejoin: miter; stroke-miterlimit: 10; fill: rgb(127,178,65); fill-rule: nonzero; opacity: 1;" transform=" matrix(1 0 0 1 0 0) " stroke-linecap="round" />
	<path d="M 52.462 57.154 c 10.618 -13.39 30.514 -12.855 33.494 -26.45 c -4.597 9.985 -19.856 6.21 -30.311 14.746 c -6.059 5.184 -9.777 11.615 -8.318 20.804 C 48.499 63.069 50.27 60.052 52.462 57.154 z" style="stroke: none; stroke-width: 1; stroke-dasharray: none; stroke-linecap: butt; stroke-linejoin: miter; stroke-miterlimit: 10; fill: rgb(113,156,64); fill-rule: nonzero; opacity: 1;" transform=" matrix(1 0 0 1 0 0) " stroke-linecap="round" />
	<path d="M 41.417 71.346 C 36.524 58.49 23.642 52.164 13.154 50.5 c 15.364 7.937 23.033 16.378 28.463 33.555 l -3.13 0.775 c -0.874 -3.34 -2.088 -6.358 -3.555 -9.139 c -10.716 3.562 -20.485 2.482 -28.441 -6.008 C -3.393 57.41 -0.107 44.092 4.044 30.704 c 3.952 12.89 25.983 10.943 34.248 26.041 c 1.745 3.187 3.208 6.323 4.38 9.508" style="stroke: none; stroke-width: 1; stroke-dasharray: none; stroke-linecap: butt; stroke-linejoin: miter; stroke-miterlimit: 10; fill: rgb(127,178,65); fill-rule: nonzero; opacity: 1;" transform=" matrix(1 0 0 1 0 0) " stroke-linecap="round" />
	<path d="M 37.538 57.154 C 26.921 43.764 7.025 44.3 4.044 30.704 c 4.597 9.985 19.856 6.21 30.311 14.746 c 6.059 5.184 9.777 11.615 8.318 20.804 C 41.501 63.069 39.73 60.052 37.538 57.154 z" style="stroke: none; stroke-width: 1; stroke-dasharray: none; stroke-linecap: butt; stroke-linejoin: miter; stroke-miterlimit: 10; fill: rgb(113,156,64); fill-rule: nonzero; opacity: 1;" transform=" matrix(1 0 0 1 0 0) " stroke-linecap="round" />
	<path d="M 28.681 37.716 c 2.056 0.785 4.1 1.765 6.064 3.064 c 1.667 -13.907 11.671 -25.423 5.273 -35.609 c 3.72 10.344 -9.811 18.346 -11.284 31.762 C 28.71 37.195 28.698 37.455 28.681 37.716 z" style="stroke: none; stroke-width: 1; stroke-dasharray: none; stroke-linecap: butt; stroke-linejoin: miter; stroke-miterlimit: 10; fill: rgb(113,156,64); fill-rule: nonzero; opacity: 1;" transform=" matrix(1 0 0 1 0 0) " stroke-linecap="round" />
	<path d="M 40.017 5.171 c 5.193 9.996 -5.867 21.451 -6.915 34.609 c 1.292 0.731 2.559 1.573 3.782 2.572 c 0.986 0.843 1.896 1.703 2.736 2.58 c 0.825 -7.353 4.024 -14.186 7.773 -19.256 c -3.172 9.659 -4.308 17.581 -3.058 25.732 c 0.237 0.455 0.458 0.914 0.664 1.378 c 1.647 -3.733 4.31 -7.18 8.046 -10.375 c 3.957 -3.232 8.321 -4.905 12.528 -6.077 c 0.017 -0.542 0.031 -1.085 0.018 -1.645 C 64.04 19.007 52.361 11.81 40.017 5.171 z" style="stroke: none; stroke-width: 1; stroke-dasharray: none; stroke-linecap: butt; stroke-linejoin: miter; stroke-miterlimit: 10; fill: rgb(127,178,65); fill-rule: nonzero; opacity: 1;" transform=" matrix(1 0 0 1 0 0) " stroke-linecap="round" />
</g>
</g>
</svg>